<svg xmlns="http://www.w3.org/2000/svg" viewBox="0 0 48 48">
  <rect width="48" height="48" rx="10" fill="#0E0D0B"/>
  <g transform="translate(4, 8)">
    <path d="M2 16 Q2 2 20 2 Q38 2 38 16 Z" fill="#D99B19"/>
    <ellipse cx="12" cy="8" rx="1.4" ry="1" fill="#FBF6E8"/>
    <ellipse cx="20" cy="6" rx="1.4" ry="1" fill="#FBF6E8"/>
    <ellipse cx="28" cy="8" rx="1.4" ry="1" fill="#FBF6E8"/>
    <path d="M1 17 Q6 14 11 17 Q16 14 21 17 Q26 14 31 17 Q36 14 39 17 L39 20 L1 20 Z" fill="#7CA040"/>
    <path d="M0 20 L40 20 L38 24 L2 24 Z" fill="#F5B82E"/>
    <rect x="1" y="24" width="36" height="6" rx="2" fill="#3A1F12"/>
    <path d="M2 30 L38 30 Q38 42 20 42 Q2 42 2 30 Z" fill="#A8740D"/>
  </g>
</svg>
